<svg xmlns="http://www.w3.org/2000/svg" width="1800" height="1200" viewBox="0 0 1800 1200">
<rect x="0.0" y="0.0" width="1800.0" height="760.0" rx="0.0" fill="#bfe6f5"/>
<circle cx="1395.0" cy="252.0" r="75.0" fill="#ffd34d"/>
<circle cx="174.0" cy="163.0" r="31.5" fill="#ffffff"/>
<circle cx="216.0" cy="145.5" r="42.0" fill="#ffffff"/>
<circle cx="258.0" cy="163.0" r="31.5" fill="#ffffff"/>
<circle cx="230.0" cy="170.0" r="35.0" fill="#ffffff"/>
<circle cx="202.0" cy="170.0" r="35.0" fill="#ffffff"/>
<circle cx="561.0" cy="245.5" r="24.8" fill="#ffffff"/>
<circle cx="594.0" cy="231.8" r="33.0" fill="#ffffff"/>
<circle cx="627.0" cy="245.5" r="24.8" fill="#ffffff"/>
<circle cx="605.0" cy="251.0" r="27.5" fill="#ffffff"/>
<circle cx="583.0" cy="251.0" r="27.5" fill="#ffffff"/>
<polygon points="0.0,1200.0 0.0,650.2 30.0,641.2 60.0,631.4 90.0,621.8 120.0,613.2 150.0,606.3 180.0,601.4 210.0,598.5 240.0,597.5 270.0,597.7 300.0,598.7 330.0,599.5 360.0,599.5 390.0,598.1 420.0,594.8 450.0,589.5 480.0,582.3 510.0,573.7 540.0,564.4 570.0,555.1 600.0,547.0 630.0,540.8 660.0,537.3 690.0,537.1 720.0,540.4 750.0,547.2 780.0,557.0 810.0,569.2 840.0,582.8 870.0,596.9 900.0,610.3 930.0,622.2 960.0,631.7 990.0,638.4 1020.0,642.2 1050.0,643.1 1080.0,641.5 1110.0,638.2 1140.0,634.0 1170.0,629.6 1200.0,625.8 1230.0,623.2 1260.0,622.1 1290.0,622.7 1320.0,624.8 1350.0,627.8 1380.0,631.0 1410.0,633.8 1440.0,635.3 1470.0,634.7 1500.0,631.7 1530.0,625.8 1560.0,617.3 1590.0,606.3 1620.0,593.7 1650.0,580.3 1680.0,567.0 1710.0,554.9 1740.0,545.0 1770.0,538.0 1800.0,534.5 1800.0,1200.0" fill="#7cc07f"/>
<polygon points="0.0,1200.0 0.0,683.8 30.0,681.5 60.0,680.8 90.0,681.2 120.0,682.1 150.0,682.9 180.0,682.8 210.0,681.5 240.0,678.8 270.0,674.9 300.0,670.3 330.0,665.6 360.0,661.6 390.0,659.0 420.0,658.6 450.0,660.7 480.0,665.4 510.0,672.3 540.0,680.8 570.0,690.2 600.0,699.4 630.0,707.6 660.0,714.0 690.0,718.0 720.0,719.6 750.0,718.8 780.0,716.1 810.0,712.3 840.0,708.1 870.0,704.2 900.0,701.3 930.0,699.6 960.0,699.2 990.0,699.9 1020.0,701.0 1050.0,702.1 1080.0,702.3 1110.0,701.0 1140.0,698.0 1170.0,693.0 1200.0,686.5 1230.0,678.8 1260.0,670.8 1290.0,663.4 1320.0,657.4 1350.0,653.6 1380.0,652.5 1410.0,654.2 1440.0,658.5 1470.0,664.8 1500.0,672.5 1530.0,680.5 1560.0,688.1 1590.0,694.4 1620.0,699.0 1650.0,701.6 1680.0,702.6 1710.0,702.2 1740.0,701.0 1770.0,699.9 1800.0,699.3 1800.0,1200.0" fill="#5fae6e"/>
<rect x="78.3" y="658.5" width="23.4" height="71.5" rx="0.0" fill="#7a4a26"/>
<circle cx="57.5" cy="619.5" r="36.4" fill="#2f7d43"/>
<circle cx="122.5" cy="619.5" r="36.4" fill="#2f7d43"/>
<circle cx="90.0" cy="593.5" r="46.8" fill="#2f7d43"/>
<circle cx="90.0" cy="626.0" r="39.0" fill="#2f7d43"/>
<rect x="258.3" y="658.5" width="23.4" height="71.5" rx="0.0" fill="#7a4a26"/>
<circle cx="237.5" cy="619.5" r="36.4" fill="#2f7d43"/>
<circle cx="302.5" cy="619.5" r="36.4" fill="#2f7d43"/>
<circle cx="270.0" cy="593.5" r="46.8" fill="#2f7d43"/>
<circle cx="270.0" cy="626.0" r="39.0" fill="#2f7d43"/>
<rect x="438.3" y="658.5" width="23.4" height="71.5" rx="0.0" fill="#7a4a26"/>
<circle cx="417.5" cy="619.5" r="36.4" fill="#2f7d43"/>
<circle cx="482.5" cy="619.5" r="36.4" fill="#2f7d43"/>
<circle cx="450.0" cy="593.5" r="46.8" fill="#2f7d43"/>
<circle cx="450.0" cy="626.0" r="39.0" fill="#2f7d43"/>
<rect x="618.3" y="658.5" width="23.4" height="71.5" rx="0.0" fill="#7a4a26"/>
<circle cx="597.5" cy="619.5" r="36.4" fill="#2f7d43"/>
<circle cx="662.5" cy="619.5" r="36.4" fill="#2f7d43"/>
<circle cx="630.0" cy="593.5" r="46.8" fill="#2f7d43"/>
<circle cx="630.0" cy="626.0" r="39.0" fill="#2f7d43"/>
<rect x="798.3" y="658.5" width="23.4" height="71.5" rx="0.0" fill="#7a4a26"/>
<circle cx="777.5" cy="619.5" r="36.4" fill="#2f7d43"/>
<circle cx="842.5" cy="619.5" r="36.4" fill="#2f7d43"/>
<circle cx="810.0" cy="593.5" r="46.8" fill="#2f7d43"/>
<circle cx="810.0" cy="626.0" r="39.0" fill="#2f7d43"/>
<rect x="978.3" y="658.5" width="23.4" height="71.5" rx="0.0" fill="#7a4a26"/>
<circle cx="957.5" cy="619.5" r="36.4" fill="#2f7d43"/>
<circle cx="1022.5" cy="619.5" r="36.4" fill="#2f7d43"/>
<circle cx="990.0" cy="593.5" r="46.8" fill="#2f7d43"/>
<circle cx="990.0" cy="626.0" r="39.0" fill="#2f7d43"/>
<rect x="1158.3" y="658.5" width="23.4" height="71.5" rx="0.0" fill="#7a4a26"/>
<circle cx="1137.5" cy="619.5" r="36.4" fill="#2f7d43"/>
<circle cx="1202.5" cy="619.5" r="36.4" fill="#2f7d43"/>
<circle cx="1170.0" cy="593.5" r="46.8" fill="#2f7d43"/>
<circle cx="1170.0" cy="626.0" r="39.0" fill="#2f7d43"/>
<rect x="1338.3" y="658.5" width="23.4" height="71.5" rx="0.0" fill="#7a4a26"/>
<circle cx="1317.5" cy="619.5" r="36.4" fill="#2f7d43"/>
<circle cx="1382.5" cy="619.5" r="36.4" fill="#2f7d43"/>
<circle cx="1350.0" cy="593.5" r="46.8" fill="#2f7d43"/>
<circle cx="1350.0" cy="626.0" r="39.0" fill="#2f7d43"/>
<rect x="1518.3" y="658.5" width="23.4" height="71.5" rx="0.0" fill="#7a4a26"/>
<circle cx="1497.5" cy="619.5" r="36.4" fill="#2f7d43"/>
<circle cx="1562.5" cy="619.5" r="36.4" fill="#2f7d43"/>
<circle cx="1530.0" cy="593.5" r="46.8" fill="#2f7d43"/>
<circle cx="1530.0" cy="626.0" r="39.0" fill="#2f7d43"/>
<rect x="1698.3" y="658.5" width="23.4" height="71.5" rx="0.0" fill="#7a4a26"/>
<circle cx="1677.5" cy="619.5" r="36.4" fill="#2f7d43"/>
<circle cx="1742.5" cy="619.5" r="36.4" fill="#2f7d43"/>
<circle cx="1710.0" cy="593.5" r="46.8" fill="#2f7d43"/>
<circle cx="1710.0" cy="626.0" r="39.0" fill="#2f7d43"/>
<rect x="0.0" y="720.0" width="1800.0" height="480.0" rx="0.0" fill="#7cc36a"/>
<polygon points="878.0,720.0 874.2,740.0 870.4,760.0 866.4,780.0 862.2,800.0 857.7,820.0 852.8,840.0 847.5,860.0 841.7,880.0 835.3,900.0 828.5,920.0 821.0,940.0 812.9,960.0 804.2,980.0 794.9,1000.0 784.9,1020.0 774.4,1040.0 763.3,1060.0 751.6,1080.0 739.5,1100.0 726.9,1120.0 714.0,1140.0 700.8,1160.0 687.3,1180.0 673.6,1200.0 1137.6,1200.0 1133.8,1180.0 1129.8,1160.0 1125.5,1140.0 1120.9,1120.0 1116.0,1100.0 1110.6,1080.0 1104.8,1060.0 1098.4,1040.0 1091.4,1020.0 1083.9,1000.0 1075.7,980.0 1066.9,960.0 1057.5,940.0 1047.5,920.0 1036.8,900.0 1025.7,880.0 1014.0,860.0 1001.8,840.0 989.2,820.0 976.2,800.0 962.9,780.0 949.4,760.0 935.7,740.0 922.0,720.0" fill="#e2c79a"/>
<rect x="36.8" y="516.0" width="86.4" height="264.0" rx="0.0" fill="#7a4a26"/>
<circle cx="-40.0" cy="372.0" r="134.4" fill="#3f9a52"/>
<circle cx="200.0" cy="372.0" r="134.4" fill="#3f9a52"/>
<circle cx="80.0" cy="276.0" r="172.8" fill="#3f9a52"/>
<circle cx="80.0" cy="396.0" r="144.0" fill="#3f9a52"/>
<rect x="1677.7" y="521.5" width="84.6" height="258.5" rx="0.0" fill="#7a4a26"/>
<circle cx="1602.5" cy="380.5" r="131.6" fill="#3f9a52"/>
<circle cx="1837.5" cy="380.5" r="131.6" fill="#3f9a52"/>
<circle cx="1720.0" cy="286.5" r="169.2" fill="#3f9a52"/>
<circle cx="1720.0" cy="404.0" r="141.0" fill="#3f9a52"/>
<rect x="58.5" y="637.0" width="18.0" height="108.0" rx="0.0" fill="#7a4a26"/>
<rect x="213.5" y="637.0" width="18.0" height="108.0" rx="0.0" fill="#7a4a26"/>
<rect x="37.5" y="570.0" width="215.0" height="72.0" rx="14.0" fill="#a86b3c" stroke="#7a4a26" stroke-width="6.0"/>
<text x="145.0" y="619.0" font-family="Arial Rounded MT Bold, Helvetica, Arial, sans-serif" font-size="36.0" font-weight="bold" text-anchor="middle" fill="#ffffff">AMAN</text>
<rect x="310.2" y="637.0" width="18.0" height="108.0" rx="0.0" fill="#7a4a26"/>
<rect x="465.2" y="637.0" width="18.0" height="108.0" rx="0.0" fill="#7a4a26"/>
<rect x="289.2" y="570.0" width="215.0" height="72.0" rx="14.0" fill="#a86b3c" stroke="#7a4a26" stroke-width="6.0"/>
<text x="396.7" y="619.0" font-family="Arial Rounded MT Bold, Helvetica, Arial, sans-serif" font-size="36.0" font-weight="bold" text-anchor="middle" fill="#ffffff">TERTIB</text>
<rect x="561.8" y="637.0" width="18.0" height="108.0" rx="0.0" fill="#7a4a26"/>
<rect x="716.8" y="637.0" width="18.0" height="108.0" rx="0.0" fill="#7a4a26"/>
<rect x="540.8" y="570.0" width="215.0" height="72.0" rx="14.0" fill="#a86b3c" stroke="#7a4a26" stroke-width="6.0"/>
<text x="648.3" y="619.0" font-family="Arial Rounded MT Bold, Helvetica, Arial, sans-serif" font-size="36.0" font-weight="bold" text-anchor="middle" fill="#ffffff">BERSIH</text>
<rect x="813.5" y="637.0" width="18.0" height="108.0" rx="0.0" fill="#7a4a26"/>
<rect x="968.5" y="637.0" width="18.0" height="108.0" rx="0.0" fill="#7a4a26"/>
<rect x="792.5" y="570.0" width="215.0" height="72.0" rx="14.0" fill="#a86b3c" stroke="#7a4a26" stroke-width="6.0"/>
<text x="900.0" y="619.0" font-family="Arial Rounded MT Bold, Helvetica, Arial, sans-serif" font-size="36.0" font-weight="bold" text-anchor="middle" fill="#ffffff">SEJUK</text>
<rect x="1065.2" y="637.0" width="18.0" height="108.0" rx="0.0" fill="#7a4a26"/>
<rect x="1220.2" y="637.0" width="18.0" height="108.0" rx="0.0" fill="#7a4a26"/>
<rect x="1044.2" y="570.0" width="215.0" height="72.0" rx="14.0" fill="#a86b3c" stroke="#7a4a26" stroke-width="6.0"/>
<text x="1151.7" y="619.0" font-family="Arial Rounded MT Bold, Helvetica, Arial, sans-serif" font-size="36.0" font-weight="bold" text-anchor="middle" fill="#ffffff">INDAH</text>
<rect x="1316.8" y="637.0" width="18.0" height="108.0" rx="0.0" fill="#7a4a26"/>
<rect x="1471.8" y="637.0" width="18.0" height="108.0" rx="0.0" fill="#7a4a26"/>
<rect x="1295.8" y="570.0" width="215.0" height="72.0" rx="14.0" fill="#a86b3c" stroke="#7a4a26" stroke-width="6.0"/>
<text x="1403.3" y="619.0" font-family="Arial Rounded MT Bold, Helvetica, Arial, sans-serif" font-size="36.0" font-weight="bold" text-anchor="middle" fill="#ffffff">RAMAH</text>
<rect x="1568.5" y="637.0" width="18.0" height="108.0" rx="0.0" fill="#7a4a26"/>
<rect x="1723.5" y="637.0" width="18.0" height="108.0" rx="0.0" fill="#7a4a26"/>
<rect x="1547.5" y="570.0" width="215.0" height="72.0" rx="14.0" fill="#a86b3c" stroke="#7a4a26" stroke-width="6.0"/>
<text x="1655.0" y="619.0" font-family="Arial Rounded MT Bold, Helvetica, Arial, sans-serif" font-size="31.0" font-weight="bold" text-anchor="middle" fill="#ffffff">KENANGAN</text>
<line x1="580.0" y1="0.0" x2="580.0" y2="52.0" stroke="#7a4a26" stroke-width="10.0" stroke-linecap="round"/>
<line x1="1220.0" y1="0.0" x2="1220.0" y2="52.0" stroke="#7a4a26" stroke-width="10.0" stroke-linecap="round"/>
<rect x="490.0" y="42.0" width="820.0" height="130.0" rx="24.0" fill="#a86b3c" stroke="#7a4a26" stroke-width="9.0"/>
<text x="900.0" y="134.0" font-family="Arial Rounded MT Bold, Helvetica, Arial, sans-serif" font-size="78.0" font-weight="bold" text-anchor="middle" fill="#ffffff">SAPTA PESONA</text>
<line x1="60.0" y1="1160.0" x2="60.0" y2="1134.4" stroke="#3d8b3d" stroke-width="3.2" stroke-linecap="round"/>
<circle cx="66.7" cy="1134.4" r="5.3" fill="#e84a5f"/>
<circle cx="62.1" cy="1140.8" r="5.3" fill="#e84a5f"/>
<circle cx="54.6" cy="1138.3" r="5.3" fill="#e84a5f"/>
<circle cx="54.6" cy="1130.5" r="5.3" fill="#e84a5f"/>
<circle cx="62.1" cy="1128.0" r="5.3" fill="#e84a5f"/>
<circle cx="60.0" cy="1134.4" r="4.0" fill="#ffd34d"/>
<line x1="640.0" y1="1170.0" x2="640.0" y2="1144.4" stroke="#3d8b3d" stroke-width="3.2" stroke-linecap="round"/>
<circle cx="646.7" cy="1144.4" r="5.3" fill="#f7a531"/>
<circle cx="642.1" cy="1150.8" r="5.3" fill="#f7a531"/>
<circle cx="634.6" cy="1148.3" r="5.3" fill="#f7a531"/>
<circle cx="634.6" cy="1140.5" r="5.3" fill="#f7a531"/>
<circle cx="642.1" cy="1138.0" r="5.3" fill="#f7a531"/>
<circle cx="640.0" cy="1144.4" r="4.0" fill="#ffd34d"/>
<line x1="1170.0" y1="1175.0" x2="1170.0" y2="1149.4" stroke="#3d8b3d" stroke-width="3.2" stroke-linecap="round"/>
<circle cx="1176.7" cy="1149.4" r="5.3" fill="#e84a5f"/>
<circle cx="1172.1" cy="1155.8" r="5.3" fill="#e84a5f"/>
<circle cx="1164.6" cy="1153.3" r="5.3" fill="#e84a5f"/>
<circle cx="1164.6" cy="1145.5" r="5.3" fill="#e84a5f"/>
<circle cx="1172.1" cy="1143.0" r="5.3" fill="#e84a5f"/>
<circle cx="1170.0" cy="1149.4" r="4.0" fill="#ffd34d"/>
<line x1="1740.0" y1="1155.0" x2="1740.0" y2="1129.4" stroke="#3d8b3d" stroke-width="3.2" stroke-linecap="round"/>
<circle cx="1746.7" cy="1129.4" r="5.3" fill="#f7a531"/>
<circle cx="1742.1" cy="1135.8" r="5.3" fill="#f7a531"/>
<circle cx="1734.6" cy="1133.3" r="5.3" fill="#f7a531"/>
<circle cx="1734.6" cy="1125.5" r="5.3" fill="#f7a531"/>
<circle cx="1742.1" cy="1123.0" r="5.3" fill="#f7a531"/>
<circle cx="1740.0" cy="1129.4" r="4.0" fill="#ffd34d"/>
<polygon points="259.0,972.3 341.0,972.3 355.4,1150.7 244.7,1150.7" fill="#2f3a55"/>
<ellipse cx="275.4" cy="1156.0" rx="20.5" ry="10.7" fill="#222222"/>
<ellipse cx="324.6" cy="1156.0" rx="20.5" ry="10.7" fill="#222222"/>
<rect x="256.9" y="832.9" width="86.1" height="155.8" rx="18.4" fill="#c9a86a"/>
<path d="M261.1,847.2 L246.7,900.5 L250.8,988.7" fill="none" stroke="#c9a86a" stroke-width="25.4" stroke-linecap="round" stroke-linejoin="round"/>
<circle cx="250.8" cy="988.7" r="13.9" fill="#f1c9a5"/>
<path d="M338.9,847.2 L373.8,839.0 L377.9,777.5" fill="none" stroke="#c9a86a" stroke-width="25.4" stroke-linecap="round" stroke-linejoin="round"/>
<circle cx="377.9" cy="777.5" r="13.9" fill="#f1c9a5"/>
<path d="M248.8,794.0 A51.2,51.2 0 0 1 351.2,794.0 L353.3,873.9 Q300.0,894.4 246.7,873.9 Z" fill="#2f4f7f"/>
<circle cx="300.0" cy="798.1" r="31.9" fill="#f1c9a5"/>
<circle cx="286.9" cy="796.0" r="4.1" fill="#3b2a1a"/>
<circle cx="313.1" cy="796.0" r="4.1" fill="#3b2a1a"/>
<path d="M288.5,809.5 Q300.0,821.4 311.5,809.5" fill="none" stroke="#3b2a1a" stroke-width="3.7" stroke-linecap="round" stroke-linejoin="round"/>
<line x1="466.1" y1="1025.5" x2="462.9" y2="1155.7" stroke="#f1c9a5" stroke-width="21.7" stroke-linecap="round"/>
<line x1="462.9" y1="1135.5" x2="462.9" y2="1155.7" stroke="#ffffff" stroke-width="22.3" stroke-linecap="round"/>
<line x1="493.9" y1="1025.5" x2="497.1" y2="1155.7" stroke="#f1c9a5" stroke-width="21.7" stroke-linecap="round"/>
<line x1="497.1" y1="1135.5" x2="497.1" y2="1155.7" stroke="#ffffff" stroke-width="22.3" stroke-linecap="round"/>
<rect x="447.4" y="1016.2" width="65.1" height="49.6" rx="7.8" fill="#d23a3a"/>
<ellipse cx="461.4" cy="1158.2" rx="15.5" ry="8.1" fill="#222222"/>
<ellipse cx="498.6" cy="1158.2" rx="15.5" ry="8.1" fill="#222222"/>
<rect x="447.4" y="913.9" width="65.1" height="117.8" rx="14.0" fill="#ffffff" stroke="#b9b9b9" stroke-width="2.0"/>
<path d="M450.6,924.8 L439.7,965.0 L442.8,1031.7" fill="none" stroke="#f1c9a5" stroke-width="19.2" stroke-linecap="round" stroke-linejoin="round"/>
<line x1="450.6" y1="924.8" x2="446.8" y2="938.9" stroke="#ffffff" stroke-width="24.8" stroke-linecap="round"/>
<circle cx="442.8" cy="1031.7" r="10.5" fill="#f1c9a5"/>
<path d="M509.4,924.8 L535.8,918.5 L538.9,872.0" fill="none" stroke="#f1c9a5" stroke-width="19.2" stroke-linecap="round" stroke-linejoin="round"/>
<line x1="509.4" y1="924.8" x2="518.7" y2="922.6" stroke="#ffffff" stroke-width="24.8" stroke-linecap="round"/>
<circle cx="538.9" cy="872.0" r="10.5" fill="#f1c9a5"/>
<circle cx="480.0" cy="884.5" r="29.4" fill="#f1c9a5"/>
<path d="M449.0,886.0 A31.0,32.5 0 0 1 511.0,886.0 Q489.3,867.4 449.0,886.0 Z" fill="#2a2a2a"/>
<circle cx="470.1" cy="886.0" r="3.1" fill="#3b2a1a"/>
<circle cx="489.9" cy="886.0" r="3.1" fill="#3b2a1a"/>
<path d="M471.3,896.2 Q480.0,905.2 488.7,896.2" fill="none" stroke="#3b2a1a" stroke-width="2.8" stroke-linecap="round" stroke-linejoin="round"/>
<line x1="1336.0" y1="1025.5" x2="1333.0" y2="1155.7" stroke="#f1c9a5" stroke-width="21.7" stroke-linecap="round"/>
<line x1="1333.0" y1="1135.5" x2="1333.0" y2="1155.7" stroke="#ffffff" stroke-width="22.3" stroke-linecap="round"/>
<line x1="1364.0" y1="1025.5" x2="1367.0" y2="1155.7" stroke="#f1c9a5" stroke-width="21.7" stroke-linecap="round"/>
<line x1="1367.0" y1="1135.5" x2="1367.0" y2="1155.7" stroke="#ffffff" stroke-width="22.3" stroke-linecap="round"/>
<polygon points="1319.0,1016.2 1381.0,1016.2 1393.4,1090.6 1306.6,1090.6" fill="#d23a3a"/>
<ellipse cx="1331.4" cy="1158.2" rx="15.5" ry="8.1" fill="#222222"/>
<ellipse cx="1368.6" cy="1158.2" rx="15.5" ry="8.1" fill="#222222"/>
<rect x="1317.5" y="913.9" width="65.1" height="117.8" rx="14.0" fill="#ffffff" stroke="#b9b9b9" stroke-width="2.0"/>
<path d="M1320.5,924.8 L1309.7,965.0 L1312.8,1031.7" fill="none" stroke="#b9b9b9" stroke-width="23.2" stroke-linecap="round" stroke-linejoin="round"/>
<path d="M1320.5,924.8 L1309.7,965.0 L1312.8,1031.7" fill="none" stroke="#ffffff" stroke-width="19.2" stroke-linecap="round" stroke-linejoin="round"/>
<circle cx="1312.8" cy="1031.7" r="10.5" fill="#f1c9a5"/>
<path d="M1379.5,924.8 L1405.8,918.5 L1408.9,872.0" fill="none" stroke="#b9b9b9" stroke-width="23.2" stroke-linecap="round" stroke-linejoin="round"/>
<path d="M1379.5,924.8 L1405.8,918.5 L1408.9,872.0" fill="none" stroke="#ffffff" stroke-width="19.2" stroke-linecap="round" stroke-linejoin="round"/>
<circle cx="1408.9" cy="872.0" r="10.5" fill="#f1c9a5"/>
<path d="M1311.2,884.5 A38.8,38.8 0 0 1 1388.8,884.5 L1390.3,944.9 Q1350.0,960.4 1309.7,944.9 Z" fill="#ffffff" stroke="#b9b9b9" stroke-width="2.0" stroke-linecap="round" stroke-linejoin="round"/>
<circle cx="1350.0" cy="887.6" r="24.1" fill="#f1c9a5"/>
<circle cx="1340.1" cy="886.0" r="3.1" fill="#3b2a1a"/>
<circle cx="1359.9" cy="886.0" r="3.1" fill="#3b2a1a"/>
<path d="M1341.3,896.2 Q1350.0,905.2 1358.7,896.2" fill="none" stroke="#3b2a1a" stroke-width="2.8" stroke-linecap="round" stroke-linejoin="round"/>
<polygon points="1477.5,1063.0 1562.5,1063.0 1554.0,1165.0 1486.0,1165.0" fill="#2e8b57"/>
<rect x="1469.0" y="1047.7" width="102.0" height="17.0" rx="5.1" fill="#236b43"/>
</svg>