<svg xmlns="http://www.w3.org/2000/svg" width="1400" height="1000" viewBox="0 0 1400 1000">
<rect width="1400" height="1000" fill="#fbfaf6"/>
<rect x="20" y="20" width="1360" height="960" fill="none" stroke="#2b2b2b" stroke-width="2"/>
<text x="700.0" y="62.0" font-family="Helvetica, Arial, sans-serif" font-size="24" text-anchor="middle" font-weight="bold" fill="#2b2b2b">SKETSA PERSPEKTIF GAPURA SEKOLAH</text>
<text x="700.0" y="88.0" font-family="Helvetica, Arial, sans-serif" font-size="14" text-anchor="middle" font-weight="normal" fill="#555">Rangka baja ringan  |  Pedestal beton  |  Atap perisai spandek</text>
<polygon points="110.0,670.3 1070.4,717.6 1290.0,651.4 329.6,604.1" fill="#e9eadf" stroke="none" stroke-width="1.1" stroke-linejoin="round" opacity="1.0"/>
<polygon points="400.7,684.6 779.8,703.3 999.3,637.1 620.2,618.4" fill="#cfcfcc" stroke="#999" stroke-width="0.8" stroke-linejoin="round" opacity="1.0"/>
<polygon points="399.6,631.7 551.3,639.2 551.3,368.6 399.6,361.2" fill="#979791" stroke="#2b2b2b" stroke-width="1.1" stroke-linejoin="round" opacity="1.0"/>
<line x1="381.0" y1="192.9" x2="388.4" y2="210.3" stroke="#6a707c" stroke-width="1.0" stroke-linecap="round"/>
<polygon points="395.9,360.1 560.2,368.2 560.2,347.9 395.9,339.8" fill="#878781" stroke="#2b2b2b" stroke-width="1.1" stroke-linejoin="round" opacity="1.0"/>
<polygon points="373.2,229.4 373.2,210.5 378.3,208.9 378.3,227.9" fill="#a9afb3" stroke="#2b2b2b" stroke-width="1.1" stroke-linejoin="round" opacity="1.0"/>
<polygon points="410.0,346.0 418.8,346.4 422.4,345.3 413.6,344.9" fill="#858a8c" stroke="#2b2b2b" stroke-width="1.1" stroke-linejoin="round" opacity="1.0"/>
<polygon points="413.6,344.9 422.4,345.3 422.4,230.3 413.6,229.9" fill="#b2b8bb" stroke="#2b2b2b" stroke-width="1.1" stroke-linejoin="round" opacity="1.0"/>
<polygon points="410.0,346.0 410.0,231.0 413.6,229.9 413.6,344.9" fill="#b6bcbf" stroke="#2b2b2b" stroke-width="1.1" stroke-linejoin="round" opacity="1.0"/>
<polygon points="418.8,346.4 418.8,231.4 422.4,230.3 422.4,345.3" fill="#c8cfd2" stroke="#2b2b2b" stroke-width="1.1" stroke-linejoin="round" opacity="1.0"/>
<line x1="472.6" y1="197.4" x2="454.7" y2="213.6" stroke="#6a707c" stroke-width="1.0" stroke-linecap="round"/>
<polygon points="410.0,346.0 418.8,346.4 418.8,231.4 410.0,231.0" fill="#dfe6ea" stroke="#2b2b2b" stroke-width="1.1" stroke-linejoin="round" opacity="1.0"/>
<polygon points="410.0,231.0 418.8,231.4 422.4,230.3 413.6,229.9" fill="#f9ffff" stroke="#2b2b2b" stroke-width="1.1" stroke-linejoin="round" opacity="1.0"/>
<polygon points="338.4,650.2 338.4,379.7 399.6,361.2 399.6,631.7" fill="#9a9a95" stroke="#2b2b2b" stroke-width="1.1" stroke-linejoin="round" opacity="1.0"/>
<line x1="416.2" y1="338.9" x2="512.2" y2="242.1" stroke="#4a4f5a" stroke-width="1.6" stroke-linecap="round"/>
<polygon points="338.4,650.2 490.0,657.7 551.3,639.2 399.6,631.7" fill="#71716d" stroke="#2b2b2b" stroke-width="1.1" stroke-linejoin="round" opacity="1.0"/>
<polygon points="329.5,380.1 329.5,359.8 395.9,339.8 395.9,360.1" fill="#8a8a84" stroke="#2b2b2b" stroke-width="1.1" stroke-linejoin="round" opacity="1.0"/>
<polygon points="409.9,230.3 518.6,235.7 518.6,216.8 409.9,211.4" fill="#a5abaf" stroke="#2b2b2b" stroke-width="1.1" stroke-linejoin="round" opacity="1.0"/>
<polygon points="506.0,350.7 514.9,351.1 518.5,350.0 509.6,349.6" fill="#858a8c" stroke="#2b2b2b" stroke-width="1.1" stroke-linejoin="round" opacity="1.0"/>
<polygon points="509.6,349.6 518.5,350.0 518.5,235.1 509.6,234.6" fill="#b2b8bb" stroke="#2b2b2b" stroke-width="1.1" stroke-linejoin="round" opacity="1.0"/>
<polygon points="506.0,350.7 506.0,235.7 509.6,234.6 509.6,349.6" fill="#b6bcbf" stroke="#2b2b2b" stroke-width="1.1" stroke-linejoin="round" opacity="1.0"/>
<line x1="564.2" y1="201.9" x2="546.4" y2="218.1" stroke="#6a707c" stroke-width="1.0" stroke-linecap="round"/>
<polygon points="514.9,351.1 514.9,236.1 518.5,235.1 518.5,350.0" fill="#c8cfd2" stroke="#2b2b2b" stroke-width="1.1" stroke-linejoin="round" opacity="1.0"/>
<polygon points="506.0,350.7 514.9,351.1 514.9,236.1 506.0,235.7" fill="#dfe6ea" stroke="#2b2b2b" stroke-width="1.1" stroke-linejoin="round" opacity="1.0"/>
<polygon points="506.0,235.7 514.9,236.1 518.5,235.1 509.6,234.6" fill="#f9ffff" stroke="#2b2b2b" stroke-width="1.1" stroke-linejoin="round" opacity="1.0"/>
<line x1="377.4" y1="350.6" x2="416.2" y2="237.4" stroke="#4a4f5a" stroke-width="1.6" stroke-linecap="round"/>
<polygon points="371.1,242.0 371.1,223.1 409.9,211.4 409.9,230.3" fill="#a9afb3" stroke="#2b2b2b" stroke-width="1.1" stroke-linejoin="round" opacity="1.0"/>
<polygon points="329.5,380.1 493.8,388.2 560.2,368.2 395.9,360.1" fill="#656561" stroke="#2b2b2b" stroke-width="1.1" stroke-linejoin="round" opacity="1.0"/>
<polygon points="338.4,379.7 490.0,387.1 551.3,368.6 399.6,361.2" fill="#d3d3cb" stroke="#2b2b2b" stroke-width="1.1" stroke-linejoin="round" opacity="1.0"/>
<polygon points="329.5,359.8 493.8,367.9 560.2,347.9 395.9,339.8" fill="#bdbdb5" stroke="#2b2b2b" stroke-width="1.1" stroke-linejoin="round" opacity="1.0"/>
<polygon points="490.0,657.7 490.0,387.1 551.3,368.6 551.3,639.2" fill="#aaaaa3" stroke="#2b2b2b" stroke-width="1.1" stroke-linejoin="round" opacity="1.0"/>
<polygon points="371.1,242.0 479.8,247.4 518.6,235.7 409.9,230.3" fill="#7c8083" stroke="#2b2b2b" stroke-width="1.1" stroke-linejoin="round" opacity="1.0"/>
<polygon points="371.1,223.1 479.8,228.5 518.6,216.8 409.9,211.4" fill="#e7eff5" stroke="#2b2b2b" stroke-width="1.1" stroke-linejoin="round" opacity="1.0"/>
<line x1="655.9" y1="206.4" x2="638.0" y2="222.6" stroke="#6a707c" stroke-width="1.0" stroke-linecap="round"/>
<line x1="473.4" y1="355.3" x2="512.2" y2="242.1" stroke="#4a4f5a" stroke-width="1.6" stroke-linecap="round"/>
<polygon points="334.4,241.1 334.4,222.2 339.5,220.7 339.5,239.6" fill="#a9afb3" stroke="#2b2b2b" stroke-width="1.1" stroke-linejoin="round" opacity="1.0"/>
<polygon points="371.2,357.7 380.0,358.1 383.6,357.0 374.8,356.6" fill="#858a8c" stroke="#2b2b2b" stroke-width="1.1" stroke-linejoin="round" opacity="1.0"/>
<polygon points="493.8,388.2 493.8,367.9 560.2,347.9 560.2,368.2" fill="#989891" stroke="#2b2b2b" stroke-width="1.1" stroke-linejoin="round" opacity="1.0"/>
<polygon points="374.8,356.6 383.6,357.0 383.6,242.0 374.8,241.6" fill="#b2b8bb" stroke="#2b2b2b" stroke-width="1.1" stroke-linejoin="round" opacity="1.0"/>
<polygon points="371.2,357.7 371.2,242.7 374.8,241.6 374.8,356.6" fill="#b6bcbf" stroke="#2b2b2b" stroke-width="1.1" stroke-linejoin="round" opacity="1.0"/>
<polygon points="479.8,247.4 479.8,228.5 518.6,216.8 518.6,235.7" fill="#bac0c5" stroke="#2b2b2b" stroke-width="1.1" stroke-linejoin="round" opacity="1.0"/>
<polygon points="380.0,358.1 380.0,243.1 383.6,242.0 383.6,357.0" fill="#c8cfd2" stroke="#2b2b2b" stroke-width="1.1" stroke-linejoin="round" opacity="1.0"/>
<polygon points="371.2,357.7 380.0,358.1 380.0,243.1 371.2,242.7" fill="#dfe6ea" stroke="#2b2b2b" stroke-width="1.1" stroke-linejoin="round" opacity="1.0"/>
<polygon points="371.2,242.7 380.0,243.1 383.6,242.0 374.8,241.6" fill="#f9ffff" stroke="#2b2b2b" stroke-width="1.1" stroke-linejoin="round" opacity="1.0"/>
<line x1="306.5" y1="215.4" x2="349.6" y2="222.0" stroke="#6a707c" stroke-width="1.0" stroke-linecap="round"/>
<line x1="747.5" y1="210.9" x2="729.6" y2="227.1" stroke="#6a707c" stroke-width="1.0" stroke-linecap="round"/>
<line x1="377.4" y1="350.6" x2="473.4" y2="253.8" stroke="#4a4f5a" stroke-width="1.6" stroke-linecap="round"/>
<polygon points="338.4,650.2 490.0,657.7 490.0,387.1 338.4,379.7" fill="#bdbdb6" stroke="#2b2b2b" stroke-width="1.1" stroke-linejoin="round" opacity="1.0"/>
<polygon points="371.1,242.0 479.8,247.4 479.8,228.5 371.1,223.1" fill="#cfd6db" stroke="#2b2b2b" stroke-width="1.1" stroke-linejoin="round" opacity="1.0"/>
<polygon points="378.3,227.9 1086.0,262.7 1086.0,243.8 378.3,208.9" fill="#a5abaf" stroke="#2b2b2b" stroke-width="1.1" stroke-linejoin="round" opacity="1.0"/>
<polygon points="467.2,362.4 476.1,362.8 479.7,361.8 470.8,361.3" fill="#858a8c" stroke="#2b2b2b" stroke-width="1.1" stroke-linejoin="round" opacity="1.0"/>
<polygon points="470.8,361.3 479.7,361.8 479.7,246.8 470.8,246.3" fill="#b2b8bb" stroke="#2b2b2b" stroke-width="1.1" stroke-linejoin="round" opacity="1.0"/>
<polygon points="373.2,229.4 1080.9,264.3 1086.0,262.7 378.3,227.9" fill="#7c8083" stroke="#2b2b2b" stroke-width="1.1" stroke-linejoin="round" opacity="1.0"/>
<polygon points="467.2,362.4 467.2,247.4 470.8,246.3 470.8,361.3" fill="#b6bcbf" stroke="#2b2b2b" stroke-width="1.1" stroke-linejoin="round" opacity="1.0"/>
<polygon points="373.2,210.5 1080.9,245.3 1086.0,243.8 378.3,208.9" fill="#e7eff5" stroke="#2b2b2b" stroke-width="1.1" stroke-linejoin="round" opacity="1.0"/>
<polygon points="476.1,362.8 476.1,247.8 479.7,246.8 479.7,361.8" fill="#c8cfd2" stroke="#2b2b2b" stroke-width="1.1" stroke-linejoin="round" opacity="1.0"/>
<polygon points="467.2,362.4 476.1,362.8 476.1,247.8 467.2,247.4" fill="#dfe6ea" stroke="#2b2b2b" stroke-width="1.1" stroke-linejoin="round" opacity="1.0"/>
<polygon points="329.5,380.1 493.8,388.2 493.8,367.9 329.5,359.8" fill="#a9a9a2" stroke="#2b2b2b" stroke-width="1.1" stroke-linejoin="round" opacity="1.0"/>
<polygon points="373.2,229.4 1080.9,264.3 1080.9,245.3 373.2,210.5" fill="#cfd6db" stroke="#2b2b2b" stroke-width="1.1" stroke-linejoin="round" opacity="1.0"/>
<polygon points="467.2,247.4 476.1,247.8 479.7,246.8 470.8,246.3" fill="#f9ffff" stroke="#2b2b2b" stroke-width="1.1" stroke-linejoin="round" opacity="1.0"/>
<line x1="398.1" y1="219.9" x2="415.9" y2="225.3" stroke="#6a707c" stroke-width="1.0" stroke-linecap="round"/>
<line x1="839.1" y1="215.4" x2="821.2" y2="231.7" stroke="#6a707c" stroke-width="1.0" stroke-linecap="round"/>
<polygon points="930.4,657.9 1082.1,665.3 1082.1,394.8 930.4,387.3" fill="#979791" stroke="#2b2b2b" stroke-width="1.1" stroke-linejoin="round" opacity="1.0"/>
<line x1="489.7" y1="224.4" x2="507.6" y2="229.8" stroke="#6a707c" stroke-width="1.0" stroke-linecap="round"/>
<line x1="930.7" y1="220.0" x2="912.9" y2="236.2" stroke="#6a707c" stroke-width="1.0" stroke-linecap="round"/>
<polygon points="926.6,386.2 1090.9,394.3 1090.9,374.0 926.6,365.9" fill="#878781" stroke="#2b2b2b" stroke-width="1.1" stroke-linejoin="round" opacity="1.0"/>
<polygon points="940.8,372.1 949.6,372.5 953.2,371.5 944.3,371.0" fill="#858a8c" stroke="#2b2b2b" stroke-width="1.1" stroke-linejoin="round" opacity="1.0"/>
<polygon points="944.3,371.0 953.2,371.5 953.2,256.5 944.3,256.0" fill="#b2b8bb" stroke="#2b2b2b" stroke-width="1.1" stroke-linejoin="round" opacity="1.0"/>
<polygon points="940.8,372.1 940.8,257.1 944.3,256.0 944.3,371.0" fill="#b6bcbf" stroke="#2b2b2b" stroke-width="1.1" stroke-linejoin="round" opacity="1.0"/>
<polygon points="949.6,372.5 949.6,257.5 953.2,256.5 953.2,371.5" fill="#c8cfd2" stroke="#2b2b2b" stroke-width="1.1" stroke-linejoin="round" opacity="1.0"/>
<line x1="581.3" y1="228.9" x2="599.2" y2="234.3" stroke="#6a707c" stroke-width="1.0" stroke-linecap="round"/>
<polygon points="940.8,372.1 949.6,372.5 949.6,257.5 940.8,257.1" fill="#dfe6ea" stroke="#2b2b2b" stroke-width="1.1" stroke-linejoin="round" opacity="1.0"/>
<polygon points="940.8,257.1 949.6,257.5 953.2,256.5 944.3,256.0" fill="#f9ffff" stroke="#2b2b2b" stroke-width="1.1" stroke-linejoin="round" opacity="1.0"/>
<polygon points="339.5,239.6 1047.2,274.4 1047.2,255.5 339.5,220.7" fill="#a5abaf" stroke="#2b2b2b" stroke-width="1.1" stroke-linejoin="round" opacity="1.0"/>
<polygon points="869.1,676.4 869.1,405.8 930.4,387.3 930.4,657.9" fill="#9a9a95" stroke="#2b2b2b" stroke-width="1.1" stroke-linejoin="round" opacity="1.0"/>
<line x1="1022.3" y1="224.5" x2="1004.5" y2="240.7" stroke="#6a707c" stroke-width="1.0" stroke-linecap="round"/>
<polygon points="334.4,241.1 1042.1,276.0 1047.2,274.4 339.5,239.6" fill="#7c8083" stroke="#2b2b2b" stroke-width="1.1" stroke-linejoin="round" opacity="1.0"/>
<polygon points="334.4,222.2 1042.1,257.0 1047.2,255.5 339.5,220.7" fill="#e7eff5" stroke="#2b2b2b" stroke-width="1.1" stroke-linejoin="round" opacity="1.0"/>
<line x1="947.0" y1="365.0" x2="1043.0" y2="268.3" stroke="#4a4f5a" stroke-width="1.6" stroke-linecap="round"/>
<polygon points="334.4,241.1 1042.1,276.0 1042.1,257.0 334.4,222.2" fill="#cfd6db" stroke="#2b2b2b" stroke-width="1.1" stroke-linejoin="round" opacity="1.0"/>
<polygon points="869.1,676.4 1020.8,683.8 1082.1,665.3 930.4,657.9" fill="#71716d" stroke="#2b2b2b" stroke-width="1.1" stroke-linejoin="round" opacity="1.0"/>
<polygon points="860.3,406.3 860.3,386.0 926.6,365.9 926.6,386.2" fill="#8a8a84" stroke="#2b2b2b" stroke-width="1.1" stroke-linejoin="round" opacity="1.0"/>
<polygon points="940.7,256.5 1049.3,261.8 1049.3,242.9 940.7,237.5" fill="#a5abaf" stroke="#2b2b2b" stroke-width="1.1" stroke-linejoin="round" opacity="1.0"/>
<polygon points="1036.8,376.8 1045.7,377.3 1049.2,376.2 1040.4,375.7" fill="#858a8c" stroke="#2b2b2b" stroke-width="1.1" stroke-linejoin="round" opacity="1.0"/>
<polygon points="1040.4,375.7 1049.2,376.2 1049.2,261.2 1040.4,260.8" fill="#b2b8bb" stroke="#2b2b2b" stroke-width="1.1" stroke-linejoin="round" opacity="1.0"/>
<polygon points="1036.8,376.8 1036.8,261.8 1040.4,260.8 1040.4,375.7" fill="#b6bcbf" stroke="#2b2b2b" stroke-width="1.1" stroke-linejoin="round" opacity="1.0"/>
<line x1="672.9" y1="233.4" x2="690.8" y2="238.8" stroke="#6a707c" stroke-width="1.0" stroke-linecap="round"/>
<polygon points="1045.7,377.3 1045.7,262.3 1049.2,261.2 1049.2,376.2" fill="#c8cfd2" stroke="#2b2b2b" stroke-width="1.1" stroke-linejoin="round" opacity="1.0"/>
<line x1="1114.0" y1="229.0" x2="1070.8" y2="243.9" stroke="#6a707c" stroke-width="1.0" stroke-linecap="round"/>
<polygon points="1036.8,376.8 1045.7,377.3 1045.7,262.3 1036.8,261.8" fill="#dfe6ea" stroke="#2b2b2b" stroke-width="1.1" stroke-linejoin="round" opacity="1.0"/>
<polygon points="1036.8,261.8 1045.7,262.3 1049.2,261.2 1040.4,260.8" fill="#f9ffff" stroke="#2b2b2b" stroke-width="1.1" stroke-linejoin="round" opacity="1.0"/>
<line x1="908.2" y1="376.7" x2="947.0" y2="263.5" stroke="#4a4f5a" stroke-width="1.6" stroke-linecap="round"/>
<polygon points="901.9,268.2 901.9,249.2 940.7,237.5 940.7,256.5" fill="#a9afb3" stroke="#2b2b2b" stroke-width="1.1" stroke-linejoin="round" opacity="1.0"/>
<polygon points="869.1,405.8 1020.8,413.3 1082.1,394.8 930.4,387.3" fill="#d3d3cb" stroke="#2b2b2b" stroke-width="1.1" stroke-linejoin="round" opacity="1.0"/>
<polygon points="860.3,406.3 1024.6,414.3 1090.9,394.3 926.6,386.2" fill="#656561" stroke="#2b2b2b" stroke-width="1.1" stroke-linejoin="round" opacity="1.0"/>
<polygon points="860.3,386.0 1024.6,394.0 1090.9,374.0 926.6,365.9" fill="#bdbdb5" stroke="#2b2b2b" stroke-width="1.1" stroke-linejoin="round" opacity="1.0"/>
<polygon points="1080.9,264.3 1080.9,245.3 1086.0,243.8 1086.0,262.7" fill="#bac0c5" stroke="#2b2b2b" stroke-width="1.1" stroke-linejoin="round" opacity="1.0"/>
<polygon points="1020.8,683.8 1020.8,413.3 1082.1,394.8 1082.1,665.3" fill="#aaaaa3" stroke="#2b2b2b" stroke-width="1.1" stroke-linejoin="round" opacity="1.0"/>
<polygon points="901.9,268.2 1010.5,273.5 1049.3,261.8 940.7,256.5" fill="#7c8083" stroke="#2b2b2b" stroke-width="1.1" stroke-linejoin="round" opacity="1.0"/>
<polygon points="901.9,249.2 1010.5,254.6 1049.3,242.9 940.7,237.5" fill="#e7eff5" stroke="#2b2b2b" stroke-width="1.1" stroke-linejoin="round" opacity="1.0"/>
<line x1="764.6" y1="237.9" x2="782.4" y2="243.4" stroke="#6a707c" stroke-width="1.0" stroke-linecap="round"/>
<line x1="1004.2" y1="381.4" x2="1043.0" y2="268.3" stroke="#4a4f5a" stroke-width="1.6" stroke-linecap="round"/>
<polygon points="902.0,383.8 910.8,384.2 914.4,383.2 905.5,382.7" fill="#858a8c" stroke="#2b2b2b" stroke-width="1.1" stroke-linejoin="round" opacity="1.0"/>
<polygon points="1024.6,414.3 1024.6,394.0 1090.9,374.0 1090.9,394.3" fill="#989891" stroke="#2b2b2b" stroke-width="1.1" stroke-linejoin="round" opacity="1.0"/>
<polygon points="905.5,382.7 914.4,383.2 914.4,268.2 905.5,267.7" fill="#b2b8bb" stroke="#2b2b2b" stroke-width="1.1" stroke-linejoin="round" opacity="1.0"/>
<polygon points="902.0,383.8 902.0,268.8 905.5,267.7 905.5,382.7" fill="#b6bcbf" stroke="#2b2b2b" stroke-width="1.1" stroke-linejoin="round" opacity="1.0"/>
<polygon points="1010.5,273.5 1010.5,254.6 1049.3,242.9 1049.3,261.8" fill="#bac0c5" stroke="#2b2b2b" stroke-width="1.1" stroke-linejoin="round" opacity="1.0"/>
<polygon points="910.8,384.2 910.8,269.2 914.4,268.2 914.4,383.2" fill="#c8cfd2" stroke="#2b2b2b" stroke-width="1.1" stroke-linejoin="round" opacity="1.0"/>
<polygon points="902.0,383.8 910.8,384.2 910.8,269.2 902.0,268.8" fill="#dfe6ea" stroke="#2b2b2b" stroke-width="1.1" stroke-linejoin="round" opacity="1.0"/>
<polygon points="902.0,268.8 910.8,269.2 914.4,268.2 905.5,267.7" fill="#f9ffff" stroke="#2b2b2b" stroke-width="1.1" stroke-linejoin="round" opacity="1.0"/>
<line x1="856.2" y1="242.4" x2="874.1" y2="247.9" stroke="#6a707c" stroke-width="1.0" stroke-linecap="round"/>
<line x1="908.2" y1="376.7" x2="1004.2" y2="280.0" stroke="#4a4f5a" stroke-width="1.6" stroke-linecap="round"/>
<polygon points="869.1,676.4 1020.8,683.8 1020.8,413.3 869.1,405.8" fill="#bdbdb6" stroke="#2b2b2b" stroke-width="1.1" stroke-linejoin="round" opacity="1.0"/>
<polygon points="901.9,268.2 1010.5,273.5 1010.5,254.6 901.9,249.2" fill="#cfd6db" stroke="#2b2b2b" stroke-width="1.1" stroke-linejoin="round" opacity="1.0"/>
<polygon points="998.0,388.5 1006.9,389.0 1010.4,387.9 1001.6,387.5" fill="#858a8c" stroke="#2b2b2b" stroke-width="1.1" stroke-linejoin="round" opacity="1.0"/>
<polygon points="1001.6,387.5 1010.4,387.9 1010.4,272.9 1001.6,272.5" fill="#b2b8bb" stroke="#2b2b2b" stroke-width="1.1" stroke-linejoin="round" opacity="1.0"/>
<polygon points="998.0,388.5 998.0,273.5 1001.6,272.5 1001.6,387.5" fill="#b6bcbf" stroke="#2b2b2b" stroke-width="1.1" stroke-linejoin="round" opacity="1.0"/>
<polygon points="1006.9,389.0 1006.9,274.0 1010.4,272.9 1010.4,387.9" fill="#c8cfd2" stroke="#2b2b2b" stroke-width="1.1" stroke-linejoin="round" opacity="1.0"/>
<polygon points="998.0,388.5 1006.9,389.0 1006.9,274.0 998.0,273.5" fill="#dfe6ea" stroke="#2b2b2b" stroke-width="1.1" stroke-linejoin="round" opacity="1.0"/>
<polygon points="860.3,406.3 1024.6,414.3 1024.6,394.0 860.3,386.0" fill="#a9a9a2" stroke="#2b2b2b" stroke-width="1.1" stroke-linejoin="round" opacity="1.0"/>
<polygon points="998.0,273.5 1006.9,274.0 1010.4,272.9 1001.6,272.5" fill="#f9ffff" stroke="#2b2b2b" stroke-width="1.1" stroke-linejoin="round" opacity="1.0"/>
<line x1="947.8" y1="246.9" x2="965.7" y2="252.4" stroke="#6a707c" stroke-width="1.0" stroke-linecap="round"/>
<polygon points="1042.1,276.0 1042.1,257.0 1047.2,255.5 1047.2,274.4" fill="#bac0c5" stroke="#2b2b2b" stroke-width="1.1" stroke-linejoin="round" opacity="1.0"/>
<line x1="1039.4" y1="251.5" x2="1032.0" y2="255.6" stroke="#6a707c" stroke-width="1.0" stroke-linecap="round"/>
<polygon points="292.8,211.0 369.4,187.9 425.9,150.0" fill="#983a31" stroke="#2b2b2b" stroke-width="1.6" stroke-linejoin="round" opacity="1.0"/>
<polygon points="369.4,187.9 1127.6,225.2 994.6,178.0 425.9,150.0" fill="#86332b" stroke="#2b2b2b" stroke-width="1.6" stroke-linejoin="round" opacity="1.0"/>
<polygon points="292.8,211.0 1051.0,248.3 994.6,178.0 425.9,150.0" fill="#b3453a" stroke="#2b2b2b" stroke-width="1.6" stroke-linejoin="round" opacity="1.0"/>
<polygon points="1051.0,248.3 1127.6,225.2 994.6,178.0" fill="#7d3028" stroke="#2b2b2b" stroke-width="1.6" stroke-linejoin="round" opacity="1.0"/>
<polygon points="532.9,222.8 608.7,226.6 647.0,160.9 571.2,157.2" fill="#4b86c9" stroke="#2b2b2b" stroke-width="1.0" stroke-linejoin="round" opacity="0.92"/>
<line x1="368.6" y1="214.7" x2="399.3" y2="162.2" stroke="#7f2d25" stroke-width="0.7" stroke-linecap="round"/>
<line x1="393.9" y1="216.0" x2="432.2" y2="150.3" stroke="#7f2d25" stroke-width="0.7" stroke-linecap="round"/>
<line x1="343.3" y1="213.5" x2="363.8" y2="178.5" stroke="#7f2d25" stroke-width="0.7" stroke-linecap="round"/>
<line x1="318.1" y1="212.2" x2="328.3" y2="194.7" stroke="#7f2d25" stroke-width="0.7" stroke-linecap="round"/>
<line x1="419.2" y1="217.2" x2="457.5" y2="151.6" stroke="#7f2d25" stroke-width="0.7" stroke-linecap="round"/>
<polygon points="735.1,232.8 810.9,236.5 849.2,170.8 773.4,167.1" fill="#4b86c9" stroke="#2b2b2b" stroke-width="1.0" stroke-linejoin="round" opacity="0.92"/>
<line x1="444.4" y1="218.5" x2="482.7" y2="152.8" stroke="#7f2d25" stroke-width="0.7" stroke-linecap="round"/>
<line x1="469.7" y1="219.7" x2="508.0" y2="154.0" stroke="#7f2d25" stroke-width="0.7" stroke-linecap="round"/>
<line x1="495.0" y1="221.0" x2="533.3" y2="155.3" stroke="#7f2d25" stroke-width="0.7" stroke-linecap="round"/>
<line x1="520.3" y1="222.2" x2="558.6" y2="156.5" stroke="#7f2d25" stroke-width="0.7" stroke-linecap="round"/>
<line x1="545.5" y1="223.4" x2="583.8" y2="157.8" stroke="#7f2d25" stroke-width="0.7" stroke-linecap="round"/>
<line x1="570.8" y1="224.7" x2="609.1" y2="159.0" stroke="#7f2d25" stroke-width="0.7" stroke-linecap="round"/>
<line x1="596.1" y1="225.9" x2="634.4" y2="160.3" stroke="#7f2d25" stroke-width="0.7" stroke-linecap="round"/>
<line x1="621.4" y1="227.2" x2="659.7" y2="161.5" stroke="#7f2d25" stroke-width="0.7" stroke-linecap="round"/>
<line x1="646.6" y1="228.4" x2="684.9" y2="162.8" stroke="#7f2d25" stroke-width="0.7" stroke-linecap="round"/>
<line x1="671.9" y1="229.7" x2="710.2" y2="164.0" stroke="#7f2d25" stroke-width="0.7" stroke-linecap="round"/>
<line x1="697.2" y1="230.9" x2="735.5" y2="165.2" stroke="#7f2d25" stroke-width="0.7" stroke-linecap="round"/>
<line x1="722.5" y1="232.2" x2="760.8" y2="166.5" stroke="#7f2d25" stroke-width="0.7" stroke-linecap="round"/>
<line x1="747.7" y1="233.4" x2="786.0" y2="167.7" stroke="#7f2d25" stroke-width="0.7" stroke-linecap="round"/>
<line x1="773.0" y1="234.6" x2="811.3" y2="169.0" stroke="#7f2d25" stroke-width="0.7" stroke-linecap="round"/>
<line x1="798.3" y1="235.9" x2="836.6" y2="170.2" stroke="#7f2d25" stroke-width="0.7" stroke-linecap="round"/>
<line x1="823.6" y1="237.1" x2="861.9" y2="171.5" stroke="#7f2d25" stroke-width="0.7" stroke-linecap="round"/>
<line x1="848.8" y1="238.4" x2="887.1" y2="172.7" stroke="#7f2d25" stroke-width="0.7" stroke-linecap="round"/>
<line x1="874.1" y1="239.6" x2="912.4" y2="174.0" stroke="#7f2d25" stroke-width="0.7" stroke-linecap="round"/>
<line x1="899.4" y1="240.9" x2="937.7" y2="175.2" stroke="#7f2d25" stroke-width="0.7" stroke-linecap="round"/>
<line x1="425.9" y1="150.0" x2="994.6" y2="178.0" stroke="#2b2b2b" stroke-width="2.2" stroke-linecap="round"/>
<line x1="924.7" y1="242.1" x2="963.0" y2="176.4" stroke="#7f2d25" stroke-width="0.7" stroke-linecap="round"/>
<line x1="949.9" y1="243.4" x2="988.2" y2="177.7" stroke="#7f2d25" stroke-width="0.7" stroke-linecap="round"/>
<line x1="975.2" y1="244.6" x2="1005.9" y2="192.1" stroke="#7f2d25" stroke-width="0.7" stroke-linecap="round"/>
<line x1="1000.5" y1="245.8" x2="1020.9" y2="210.8" stroke="#7f2d25" stroke-width="0.7" stroke-linecap="round"/>
<line x1="1025.8" y1="247.1" x2="1036.0" y2="229.6" stroke="#7f2d25" stroke-width="0.7" stroke-linecap="round"/>
<line x1="292.8" y1="211.0" x2="1051.0" y2="248.3" stroke="#2b2b2b" stroke-width="3" stroke-linecap="round"/>
<circle cx="641.3" cy="477.3" r="15.2" fill="#555"/>
<rect x="621.8" y="494.6" width="39.0" height="184.0" rx="10.8" fill="#555"/>
<text x="60.0" y="850.0" font-family="Helvetica, Arial, sans-serif" font-size="15" text-anchor="start" font-weight="bold" fill="#2b2b2b">Ukuran utama</text>
<text x="60.0" y="874.0" font-family="Helvetica, Arial, sans-serif" font-size="13" text-anchor="start" font-weight="normal" fill="#2b2b2b">Lebar total atap  : 6.00 m</text>
<text x="60.0" y="894.0" font-family="Helvetica, Arial, sans-serif" font-size="13" text-anchor="start" font-weight="normal" fill="#2b2b2b">Bukaan bersih     : 3.00 m</text>
<text x="60.0" y="914.0" font-family="Helvetica, Arial, sans-serif" font-size="13" text-anchor="start" font-weight="normal" fill="#2b2b2b">Kedalaman atap    : 1.50 m</text>
<text x="60.0" y="934.0" font-family="Helvetica, Arial, sans-serif" font-size="13" text-anchor="start" font-weight="normal" fill="#2b2b2b">Pedestal          : 1.20 x 1.20 x 2.00 m</text>
<text x="60.0" y="954.0" font-family="Helvetica, Arial, sans-serif" font-size="13" text-anchor="start" font-weight="normal" fill="#2b2b2b">Tinggi total      : ± 3.65 m   (figur manusia 1,60 m sebagai skala)</text>
<rect x="930" y="870" width="430" height="92" fill="none" stroke="#2b2b2b" stroke-width="1.6"/>
<line x1="930" y1="900" x2="1360" y2="900" stroke="#2b2b2b"/>
<text x="1145.0" y="892.0" font-family="Helvetica, Arial, sans-serif" font-size="15" text-anchor="middle" font-weight="bold" fill="#2b2b2b">SABIHA ARSITEK</text>
<text x="942.0" y="920.0" font-family="Helvetica, Arial, sans-serif" font-size="12" text-anchor="start" font-weight="normal" fill="#2b2b2b">Proyek : GAPURA SEKOLAH</text>
<text x="942.0" y="938.0" font-family="Helvetica, Arial, sans-serif" font-size="12" text-anchor="start" font-weight="normal" fill="#2b2b2b">Tahap  : Sketsa perspektif v4</text>
<text x="942.0" y="956.0" font-family="Helvetica, Arial, sans-serif" font-size="12" text-anchor="start" font-weight="normal" fill="#2b2b2b">Ukuran asumsi, wajib diukur ulang di lokasi</text>
</svg>